<svg width="1440" height="120" viewBox="0 0 1440 120" fill="none" xmlns="http://www.w3.org/2000/svg">
<g filter="url(#filter0_d_1_51)">
<path d="M150 42.7686C151.419 43.0235 152.648 43.2147 153.685 43.3421C154.723 43.4377 155.581 43.5174 156.259 43.5811C157.042 43.6449 157.699 43.6608 158.229 43.6289C158.779 43.5971 159.531 43.5174 160.484 43.3899C161.289 43.2943 162.348 43.1669 163.661 43.0075C164.974 42.8164 166.616 42.5614 168.586 42.2428C168.607 42.9757 168.617 43.6927 168.617 44.3937C168.639 45.0629 168.66 45.6524 168.681 46.1623C168.702 46.7677 168.713 47.3254 168.713 47.8352C168.713 48.3769 168.692 49.0621 168.649 49.8906C168.607 50.5916 168.533 51.4839 168.427 52.5673C168.342 53.6189 168.204 54.8776 168.014 56.3434C167.717 54.6226 167.431 53.2365 167.156 52.1849C166.881 51.1015 166.626 50.2411 166.393 49.6038C166.139 48.8709 165.885 48.3132 165.631 47.9308C165.356 47.644 165.027 47.405 164.646 47.2138C164.307 47.0545 163.873 46.927 163.344 46.8314C162.835 46.7358 162.232 46.7518 161.533 46.8792C161.427 51.0855 161.353 54.4952 161.31 57.1082C161.268 59.7212 161.236 61.7606 161.215 63.2264C161.194 64.979 161.183 66.2377 161.183 67.0025C161.204 68.086 161.321 69.1535 161.533 70.205C161.702 71.0973 161.977 72.0214 162.359 72.9774C162.74 73.9333 163.291 74.7778 164.011 75.5107H160.135C159.775 75.5107 159.33 75.5426 158.8 75.6063C158.356 75.67 157.784 75.7338 157.085 75.7975C156.407 75.8612 155.613 75.9727 154.702 76.1321C155.02 75.3036 155.274 74.5547 155.464 73.8855C155.655 73.2164 155.803 72.6428 155.909 72.1648C156.036 71.5912 156.132 71.0813 156.195 70.6352C156.216 69.9979 156.269 68.7073 156.354 66.7635C156.375 65.9669 156.396 64.979 156.418 63.8C156.46 62.621 156.502 61.2189 156.545 59.5937C156.608 57.9686 156.661 56.1044 156.704 54.0013C156.767 51.8662 156.831 49.4604 156.894 46.7836C156.513 46.6243 156.153 46.6403 155.814 46.8314C155.475 46.9908 155.179 47.1979 154.924 47.4528C154.628 47.7715 154.342 48.1539 154.067 48.6C153.791 49.1417 153.484 49.8428 153.145 50.7031C152.849 51.4361 152.51 52.408 152.129 53.6189C151.747 54.7979 151.313 56.2637 150.826 58.0164C150.72 56.1681 150.646 54.6545 150.604 53.4755C150.561 52.2646 150.53 51.3245 150.508 50.6553C150.487 49.8587 150.477 49.2692 150.477 48.8868C150.477 48.5363 150.455 48.0742 150.413 47.5006C150.371 47.0226 150.318 46.4013 150.254 45.6365C150.191 44.8398 150.106 43.8839 150 42.7686Z" fill="white"/>
<path d="M167.283 54.766C167.685 54.7979 168.046 54.8138 168.363 54.8138C168.702 54.782 168.988 54.7501 169.221 54.7182C169.496 54.6864 169.74 54.6545 169.952 54.6226C170.269 54.5589 170.598 54.4792 170.937 54.3836C171.233 54.3199 171.54 54.2403 171.858 54.1447C172.197 54.0172 172.525 53.8738 172.843 53.7145C172.716 54.1925 172.61 54.6067 172.525 54.9572C172.44 55.3078 172.377 55.6105 172.335 55.8654C172.271 56.1522 172.239 56.3912 172.239 56.5824C172.218 56.8055 172.207 57.0763 172.207 57.395C172.186 57.9367 172.186 58.813 172.207 60.0239C173.309 58.5899 174.23 57.4746 174.971 56.678C175.734 55.8813 176.338 55.26 176.782 54.8138C177.312 54.304 177.725 53.9694 178.021 53.8101C178.805 53.6189 179.493 53.8897 180.087 54.6226C180.341 54.9413 180.584 55.3715 180.817 55.9132C181.05 56.4231 181.251 57.1082 181.421 57.9686C181.59 58.8289 181.717 59.8646 181.802 61.0755C181.887 62.2545 181.897 63.6725 181.834 65.3296C181.389 65.3933 180.987 65.457 180.627 65.5208C180.288 65.5845 180.002 65.6323 179.769 65.6642C179.493 65.7279 179.239 65.7597 179.006 65.7597L178.149 65.9031C177.852 65.9669 177.481 66.0306 177.037 66.0943C176.613 66.1262 176.094 66.1899 175.48 66.2855C176.369 65.2021 176.941 64.2621 177.195 63.4654C177.471 62.6369 177.587 61.9518 177.545 61.4101C177.503 60.8046 177.312 60.2788 176.973 59.8327C176.571 59.4822 176.136 59.3547 175.67 59.4503C175.268 59.514 174.802 59.7849 174.273 60.2629C173.743 60.7409 173.182 61.6331 172.589 62.9396C172.631 64.979 172.673 66.6679 172.716 68.0063C172.779 69.3447 172.832 70.4281 172.875 71.2566C172.938 72.2126 172.991 72.9614 173.033 73.5031C173.097 73.9811 173.224 74.491 173.415 75.0327C173.563 75.4788 173.775 75.9727 174.05 76.5145C174.325 77.0562 174.686 77.5979 175.13 78.1396C174.198 78.0759 173.436 78.0759 172.843 78.1396C172.483 78.1715 172.165 78.2034 171.89 78.2352C171.593 78.299 171.276 78.3627 170.937 78.4264C170.64 78.4901 170.291 78.5539 169.888 78.6176C169.507 78.7132 169.083 78.8088 168.617 78.9044C168.787 78.5539 168.925 78.1396 169.03 77.6616C169.136 77.2155 169.221 76.7853 169.285 76.3711C169.369 75.8931 169.433 75.3992 169.475 74.8893C169.496 74.4432 169.507 73.774 169.507 72.8818C169.528 71.9895 169.518 70.9857 169.475 69.8704C169.454 68.7233 169.422 67.5442 169.38 66.3333C169.338 65.0906 169.285 63.9275 169.221 62.844C169.158 61.7606 169.083 60.8205 168.999 60.0239C168.935 59.1954 168.861 58.6218 168.776 58.3031C168.67 57.9208 168.543 57.5384 168.395 57.156C168.268 56.8055 168.109 56.439 167.918 56.0566C167.728 55.6423 167.516 55.2122 167.283 54.766Z" fill="white"/>
<path d="M185.551 58.3031C185.657 58.1119 185.72 57.7614 185.742 57.2516C185.784 56.7099 185.869 56.1044 185.996 55.4352C186.144 54.766 186.388 54.065 186.727 53.3321C187.065 52.5992 187.616 51.914 188.379 51.2767C189.12 50.6394 189.84 50.257 190.539 50.1296C191.238 50.0021 191.905 50.0499 192.54 50.273C193.176 50.496 193.769 50.8465 194.32 51.3245C194.891 51.8025 195.41 52.3283 195.876 52.9019C196.194 53.2843 196.448 53.8419 196.639 54.5748C196.829 55.2759 196.978 56.0725 197.084 56.9648C197.19 57.857 197.264 58.7971 197.306 59.7849C197.37 60.7409 197.412 61.6809 197.433 62.605C197.454 63.4973 197.465 64.3258 197.465 65.0906C197.486 65.8235 197.528 66.4289 197.592 66.9069C197.677 67.608 197.825 68.2134 198.037 68.7233C198.249 69.2013 198.482 69.6155 198.736 69.966C198.99 70.2847 199.244 70.5396 199.498 70.7308C199.752 70.922 199.975 71.0654 200.165 71.161C200.292 71.2566 200.409 71.3203 200.515 71.3522C200.727 71.4797 200.875 71.4797 200.96 71.3522C200.833 71.7983 200.716 72.1807 200.61 72.4994C200.504 72.818 200.42 73.0889 200.356 73.3119C200.271 73.5669 200.197 73.774 200.134 73.9333C200.07 74.1245 199.996 74.2998 199.911 74.4591C199.848 74.6184 199.763 74.7937 199.657 74.9849C199.551 75.1761 199.445 75.3832 199.339 75.6063C199.064 75.447 198.799 75.2558 198.545 75.0327C198.312 74.8096 198.1 74.6025 197.91 74.4113C197.677 74.1883 197.465 73.9652 197.274 73.7421C197.084 73.5191 196.904 73.2642 196.734 72.9774C196.586 72.7224 196.427 72.4516 196.258 72.1648C196.109 71.878 195.982 71.5593 195.876 71.2088C195.749 71.6231 195.442 72.2126 194.955 72.9774C194.489 73.7421 193.875 74.4432 193.112 75.0805C192.35 75.686 191.46 76.1161 190.444 76.3711C189.448 76.626 188.347 76.4507 187.14 75.8453C186.61 75.5904 186.112 75.2239 185.646 74.7459C185.18 74.2361 184.778 73.6306 184.439 72.9296C184.121 72.2285 183.888 71.4319 183.74 70.5396C183.613 69.6155 183.624 68.5958 183.772 67.4805C183.92 66.3652 184.185 65.4252 184.566 64.6604C184.947 63.8956 185.403 63.2742 185.932 62.7962C186.462 62.3182 187.055 61.9518 187.711 61.6969C188.368 61.4419 189.046 61.2667 189.745 61.1711C190.295 61.1392 190.846 61.187 191.397 61.3145C191.863 61.4419 192.35 61.6809 192.858 62.0314C193.367 62.3501 193.801 62.844 194.161 63.5132C194.14 61.8243 194.097 60.486 194.034 59.4981C193.991 58.4784 193.949 57.6977 193.907 57.156C193.822 56.5187 193.748 56.0725 193.684 55.8176C193.578 55.5945 193.462 55.3396 193.335 55.0528C193.229 54.766 193.091 54.5111 192.922 54.2881C192.752 54.0331 192.54 53.826 192.286 53.6667C192.032 53.5073 191.736 53.4436 191.397 53.4755C191.037 53.5073 190.751 53.6507 190.539 53.9057C190.327 54.1606 190.158 54.4633 190.031 54.8138C189.925 55.1325 189.861 55.483 189.84 55.8654C189.819 56.2478 189.829 56.5824 189.872 56.8692C189.914 57.0604 189.978 57.2675 190.062 57.4906C190.147 57.6818 190.264 57.8889 190.412 58.1119C190.56 58.335 190.761 58.5262 191.016 58.6855C190.528 58.7811 190.094 58.8608 189.713 58.9245C189.332 58.9564 189.003 59.0042 188.728 59.0679C188.41 59.1317 188.135 59.1795 187.902 59.2113C187.669 59.2432 187.394 59.3069 187.076 59.4025C186.801 59.4662 186.462 59.5459 186.059 59.6415C185.657 59.7371 185.191 59.8646 184.661 60.0239C184.789 59.8008 184.905 59.5937 185.011 59.4025C185.117 59.1795 185.212 58.9883 185.297 58.8289C185.382 58.6377 185.466 58.4625 185.551 58.3031ZM190.317 63.9912C189.935 64.0231 189.554 64.1665 189.173 64.4214C188.792 64.6444 188.453 64.979 188.156 65.4252C187.86 65.8394 187.605 66.3333 187.394 66.9069C187.203 67.4486 187.108 68.0541 187.108 68.7233C187.108 69.3925 187.214 69.982 187.425 70.4918C187.658 70.9698 187.955 71.3681 188.315 71.6868C188.696 72.0055 189.099 72.1966 189.522 72.2604C189.967 72.3241 190.401 72.2604 190.825 72.0692C191.227 71.8461 191.609 71.4956 191.969 71.0176C192.329 70.5078 192.636 69.966 192.89 69.3925C193.144 68.787 193.324 68.1975 193.43 67.6239C193.536 67.0184 193.547 66.5245 193.462 66.1421C193.292 65.3136 192.911 64.74 192.318 64.4214C191.725 64.0709 191.058 63.9275 190.317 63.9912Z" fill="white"/>
<path d="M198.545 51.3245C198.905 51.4201 199.276 51.4998 199.657 51.5635C200.017 51.5954 200.345 51.6273 200.642 51.6591C200.981 51.691 201.309 51.7069 201.627 51.7069C201.944 51.7069 202.305 51.691 202.707 51.6591C203.046 51.6273 203.448 51.5795 203.914 51.5157C204.401 51.452 204.931 51.3564 205.503 51.2289C205.164 51.5157 204.899 51.8184 204.709 52.1371C204.518 52.4558 204.37 52.7426 204.264 52.9975C204.137 53.3161 204.052 53.6029 204.01 53.8579C203.967 54.1128 203.978 54.6386 204.041 55.4352C204.105 56.2319 204.19 57.156 204.296 58.2075C204.423 59.2591 204.56 60.3585 204.709 61.5057C204.857 62.6528 205.005 63.7044 205.153 64.6604C205.323 65.6164 205.471 66.413 205.598 67.0503C205.746 67.6876 205.863 67.9904 205.948 67.9585C206.032 67.9585 206.159 67.6398 206.329 67.0025C206.519 66.3652 206.731 65.5845 206.964 64.6604C207.197 63.7044 207.441 62.6688 207.695 61.5535C207.949 60.4063 208.171 59.3388 208.362 58.3509C208.553 57.3631 208.701 56.5346 208.807 55.8654C208.934 55.1644 208.987 54.7501 208.966 54.6226C208.902 54.4952 208.828 54.3199 208.743 54.0969C208.595 53.7463 208.267 53.1409 207.758 52.2805C208.373 52.3442 208.902 52.408 209.347 52.4717C209.792 52.5036 210.152 52.5514 210.427 52.6151C210.745 52.6788 210.999 52.7266 211.19 52.7585C211.38 52.7904 211.656 52.7904 212.016 52.7585C212.312 52.7585 212.704 52.7426 213.191 52.7107C213.7 52.647 214.324 52.5514 215.066 52.4239C214.515 52.9019 214.06 53.3321 213.7 53.7145C213.361 54.065 213.096 54.3677 212.905 54.6226C212.672 54.9413 212.503 55.2122 212.397 55.4352C212.249 55.8495 211.984 56.8373 211.603 58.3987C211.433 59.0679 211.221 59.8964 210.967 60.8843C210.734 61.8721 210.448 63.0671 210.109 64.4692C209.792 65.8394 209.411 67.4486 208.966 69.2969C208.521 71.1451 208.023 73.2642 207.473 75.6541L204.391 76.1321C203.988 74.1245 203.66 72.4516 203.406 71.1132C203.173 69.743 202.982 68.6436 202.834 67.8151C202.665 66.8591 202.538 66.1103 202.453 65.5686C202.347 64.9631 202.22 64.0868 202.072 62.9396C201.923 61.7606 201.775 60.5656 201.627 59.3547C201.479 58.1438 201.33 57.0604 201.182 56.1044C201.034 55.1166 200.917 54.5111 200.833 54.2881C200.748 54.1287 200.6 53.9057 200.388 53.6189C200.218 53.3639 199.985 53.0612 199.689 52.7107C199.392 52.3283 199.011 51.8662 198.545 51.3245Z" fill="white"/>
<path d="M221.706 69.966C222.299 69.966 222.849 69.8704 223.358 69.6792C223.781 69.5199 224.184 69.265 224.565 68.9145C224.967 68.5321 225.232 67.9744 225.359 67.2415C225.783 67.369 226.143 67.4805 226.439 67.5761C226.736 67.6398 226.99 67.7036 227.202 67.7673C227.435 67.8629 227.636 67.9266 227.806 67.9585C227.975 68.0222 228.176 68.086 228.409 68.1497C228.621 68.2134 228.875 68.2931 229.172 68.3887C229.489 68.4524 229.86 68.548 230.284 68.6755C229.966 68.6117 229.638 68.6595 229.299 68.8189C228.981 68.9782 228.674 69.1535 228.377 69.3447C228.039 69.5677 227.721 69.8386 227.424 70.1572C227.234 70.3484 227.011 70.6352 226.757 71.0176C226.524 71.4 226.185 71.7665 225.74 72.117C225.296 72.4675 224.703 72.7702 223.961 73.0252C223.241 73.2482 222.309 73.3279 221.166 73.2642C219.789 73.2004 218.635 72.834 217.703 72.1648C216.771 71.4637 216.019 70.6193 215.447 69.6314C214.875 68.6117 214.462 67.5124 214.208 66.3333C213.954 65.1543 213.816 64.0549 213.795 63.0352C213.774 62.0155 213.975 60.948 214.398 59.8327C214.822 58.7174 215.415 57.6977 216.178 56.7736C216.961 55.8495 217.904 55.1006 219.005 54.527C220.107 53.9216 221.314 53.6189 222.627 53.6189C223.389 53.6189 224.088 53.7623 224.724 54.0491C225.38 54.304 225.973 54.6545 226.503 55.1006C227.054 55.5468 227.53 56.0566 227.933 56.6302C228.335 57.1719 228.674 57.7296 228.949 58.3031C229.225 58.9086 229.458 59.5459 229.648 60.2151C229.818 60.7887 229.955 61.4419 230.061 62.1748C230.167 62.9078 230.199 63.6566 230.157 64.4214C228.547 64.4851 227.244 64.5329 226.249 64.5648C225.275 64.5966 224.512 64.6126 223.961 64.6126H222.532H221.451C221.07 64.6126 220.573 64.6285 219.958 64.6604C219.344 64.6922 218.592 64.74 217.703 64.8038C217.808 66.0784 218.073 67.0662 218.497 67.7673C218.942 68.4365 219.408 68.9463 219.895 69.2969C220.445 69.6792 221.049 69.9023 221.706 69.966ZM218.846 61.3623C219.524 61.426 220.085 61.4738 220.53 61.5057C220.996 61.5375 221.377 61.5694 221.674 61.6013C221.992 61.6331 222.246 61.6491 222.436 61.6491H223.231C223.76 61.6491 224.745 61.6013 226.185 61.5057C226.122 60.1036 225.921 59.0361 225.582 58.3031C225.264 57.5702 224.925 57.0285 224.565 56.678C224.141 56.2956 223.675 56.0725 223.167 56.0088C221.79 56.0407 220.763 56.4709 220.085 57.2994C219.429 58.1279 219.016 59.4822 218.846 61.3623Z" fill="white"/>
<path d="M232.158 79C232.37 78.522 232.539 78.0759 232.666 77.6616C232.793 77.2474 232.899 76.8969 232.984 76.6101C233.069 76.2595 233.132 75.9409 233.175 75.6541C233.196 75.4629 233.207 74.9052 233.207 73.9811C233.207 73.057 233.185 71.8939 233.143 70.4918C233.122 69.0897 233.09 67.5124 233.048 65.7597C233.026 64.0071 232.984 62.2226 232.921 60.4063C232.878 58.5899 232.825 56.8214 232.762 55.1006C232.719 53.3799 232.677 51.8344 232.635 50.4642C232.592 49.0621 232.55 47.9149 232.508 47.0226C232.465 46.1304 232.433 45.6205 232.412 45.4931C232.37 45.3019 232.296 45.1107 232.19 44.9195C231.978 44.5371 231.618 44.1706 231.11 43.8201C232.19 43.4059 233.016 43.0713 233.588 42.8164C233.927 42.6889 234.223 42.5614 234.477 42.434C234.71 42.3065 234.943 42.179 235.176 42.0516C235.367 41.9241 235.579 41.7807 235.812 41.6214C236.045 41.4302 236.256 41.2231 236.447 41C236.341 41.9241 236.256 42.8164 236.193 43.6767C236.129 44.5371 236.076 45.3338 236.034 46.0667C235.992 46.8952 235.971 47.6918 235.971 48.4566C235.865 50.018 235.801 51.7229 235.78 53.5711C235.78 55.3874 235.79 57.2356 235.812 59.1157C235.833 60.9958 235.875 62.8281 235.939 64.6126C236.002 66.3971 236.066 68.0222 236.129 69.488C236.214 70.922 236.288 72.1488 236.352 73.1686C236.436 74.1564 236.5 74.7937 236.542 75.0805C236.627 75.5585 236.712 76.0205 236.797 76.4667C236.881 76.8491 236.977 77.2474 237.082 77.6616C237.188 78.1078 237.315 78.4583 237.464 78.7132H234.382C234.107 78.7132 233.842 78.7291 233.588 78.761C233.355 78.7929 233.111 78.8247 232.857 78.8566C232.603 78.8885 232.37 78.9363 232.158 79Z" fill="white"/>
<path d="M252.618 50.3686C252.428 51.0696 252.258 51.7069 252.11 52.2805C251.983 52.8541 251.866 53.3639 251.76 53.8101C251.654 54.3199 251.559 54.766 251.474 55.1484C251.39 55.5945 251.294 56.1044 251.189 56.678C251.083 57.1878 250.945 57.8252 250.775 58.5899C250.627 59.3229 250.447 60.1992 250.235 61.2189C250.066 59.6893 249.759 58.4784 249.314 57.5862C248.869 56.6621 248.414 55.9451 247.948 55.4352C247.397 54.8616 246.804 54.4474 246.169 54.1925C245.025 53.9057 244.199 53.9375 243.691 54.2881C243.182 54.6386 242.844 55.0847 242.674 55.6264C242.589 55.8495 242.494 56.1363 242.388 56.4868C242.303 56.8055 242.229 57.14 242.166 57.4906C242.123 57.8411 242.113 58.1916 242.134 58.5421C242.155 58.8927 242.25 59.1795 242.42 59.4025C242.526 59.5618 242.801 59.7849 243.246 60.0717C243.691 60.3266 244.22 60.6293 244.834 60.9799C245.47 61.2985 246.137 61.6491 246.836 62.0314C247.556 62.4138 248.234 62.7962 248.869 63.1786C249.505 63.561 250.055 63.9434 250.521 64.3258C250.987 64.7082 251.294 65.0587 251.443 65.3774C251.57 65.696 251.707 66.1262 251.856 66.6679C252.025 67.1778 252.142 67.7514 252.205 68.3887C252.29 68.9941 252.311 69.6314 252.269 70.3006C252.248 70.9379 252.131 71.5753 251.919 72.2126C251.707 72.8499 251.369 73.4394 250.903 73.9811C250.458 74.5229 249.854 74.969 249.092 75.3195C248.202 75.7338 247.344 75.8453 246.518 75.6541C245.692 75.4629 244.93 75.1761 244.231 74.7937C243.553 74.4113 242.96 74.0449 242.452 73.6943C241.943 73.3119 241.583 73.1526 241.371 73.2164C241.138 73.2801 240.874 73.4553 240.577 73.7421C240.281 74.0289 239.995 74.3317 239.719 74.6503C239.465 74.9371 239.243 75.208 239.052 75.4629C238.862 75.686 238.766 75.7656 238.766 75.7019C238.766 75.6382 238.798 75.447 238.862 75.1283C238.946 74.8096 239.031 74.4273 239.116 73.9811C239.222 73.5031 239.317 72.9933 239.402 72.4516C239.508 71.878 239.582 71.3363 239.624 70.8264C239.666 70.4122 239.719 69.9023 239.783 69.2969C239.825 68.7551 239.878 68.1019 239.942 67.3371C240.027 66.5405 240.122 65.5845 240.228 64.4692C240.334 65.2977 240.482 66.0147 240.673 66.6201C240.884 67.2256 241.086 67.7514 241.276 68.1975C241.509 68.7073 241.732 69.1375 241.943 69.488C242.261 69.9342 242.632 70.3484 243.055 70.7308C243.5 71.1132 243.945 71.4478 244.39 71.7346C244.834 71.9895 245.258 72.1488 245.66 72.2126C246.063 72.2763 246.402 72.2126 246.677 72.0214C246.952 71.8302 247.185 71.4797 247.376 70.9698C247.588 70.46 247.736 69.9023 247.821 69.2969C247.906 68.6914 247.937 68.1178 247.916 67.5761C247.895 67.0025 247.8 66.5405 247.63 66.1899C247.503 65.9669 247.207 65.6801 246.741 65.3296C246.296 64.979 245.756 64.5966 245.12 64.1824C244.506 63.7681 243.85 63.3379 243.151 62.8918C242.473 62.4457 241.827 61.9996 241.213 61.5535C240.62 61.0755 240.122 60.6293 239.719 60.2151C239.338 59.769 239.126 59.3706 239.084 59.0201C239.042 58.5103 239.01 57.9526 238.989 57.3472C238.968 56.7099 238.989 56.0885 239.052 55.483C239.137 54.8457 239.285 54.2403 239.497 53.6667C239.73 53.0931 240.069 52.6151 240.514 52.2327C240.81 51.9778 241.202 51.7866 241.689 51.6591C242.176 51.5317 242.716 51.4679 243.309 51.4679C243.903 51.4361 244.517 51.4679 245.152 51.5635C245.788 51.6273 246.391 51.7229 246.963 51.8503C247.556 51.9459 248.086 52.0734 248.552 52.2327C249.039 52.392 249.409 52.5354 249.664 52.6629C249.96 52.8222 250.278 52.8382 250.617 52.7107C250.913 52.6151 251.231 52.408 251.57 52.0893C251.909 51.7706 252.258 51.1971 252.618 50.3686Z" fill="white"/>
<path d="M262.276 56.2478C262.827 56.2478 263.399 56.4071 263.992 56.7258C264.585 57.0126 265.157 57.395 265.708 57.873C266.258 58.3191 266.756 58.813 267.201 59.3547C267.667 59.8646 268.048 60.3585 268.344 60.8365C268.874 61.6969 269.234 62.86 269.425 64.3258C269.636 65.7597 269.679 67.2415 269.552 68.7711C269.425 70.2688 269.128 71.6868 268.662 73.0252C268.196 74.3635 267.55 75.3514 266.724 75.9887C266.131 76.4348 265.549 76.7853 264.977 77.0403C264.405 77.2952 263.854 77.4864 263.325 77.6138C262.795 77.7413 262.298 77.805 261.832 77.805C261.366 77.805 260.963 77.7891 260.624 77.7572C259.989 77.6935 259.322 77.3589 258.623 76.7535C257.945 76.148 257.299 75.3992 256.685 74.5069C256.092 73.6147 255.583 72.6428 255.16 71.5912C254.736 70.5078 254.482 69.488 254.397 68.5321C254.27 67.2256 254.249 65.8553 254.334 64.4214C254.418 62.9874 254.726 61.665 255.255 60.4541C255.806 59.2432 256.632 58.2394 257.733 57.4428C258.856 56.6461 260.37 56.2478 262.276 56.2478ZM261.228 74.7937C261.461 74.8574 261.779 74.7778 262.181 74.5547C262.583 74.2998 262.975 73.9015 263.357 73.3597C263.759 72.818 264.108 72.1329 264.405 71.3044C264.723 70.444 264.913 69.4084 264.977 68.1975C265.04 67.0184 265.04 65.935 264.977 64.9472C264.934 63.9593 264.839 63.099 264.691 62.366C264.543 61.6013 264.373 60.9799 264.183 60.5019C263.992 60.0239 263.791 59.6893 263.579 59.4981C263.219 59.2113 262.785 58.9883 262.276 58.8289C261.768 58.6377 261.334 58.6696 260.974 58.9245C260.804 59.052 260.593 59.3229 260.338 59.7371C260.084 60.1514 259.83 60.6771 259.576 61.3145C259.322 61.9199 259.089 62.621 258.877 63.4176C258.686 64.2143 258.549 65.0428 258.464 65.9031C258.379 66.7635 258.358 67.6876 258.4 68.6755C258.464 69.6633 258.602 70.6034 258.813 71.4956C259.025 72.356 259.322 73.1048 259.703 73.7421C260.105 74.3476 260.614 74.6981 261.228 74.7937Z" fill="white"/>
<path d="M270.918 55.005C271.405 54.9413 271.818 54.8776 272.157 54.8138C272.517 54.7501 272.814 54.6864 273.047 54.6226C273.322 54.5589 273.555 54.4952 273.745 54.4314C273.936 54.3996 274.148 54.3358 274.381 54.2403C274.593 54.1765 274.826 54.0969 275.08 54.0013C275.355 53.8738 275.652 53.7304 275.969 53.5711L275.779 59.6415C276.245 58.5262 276.785 57.6818 277.399 57.1082C278.013 56.5027 278.596 56.0566 279.146 55.7698C279.803 55.4193 280.46 55.2122 281.116 55.1484C281.794 55.1803 282.419 55.3396 282.991 55.6264C283.478 55.8813 283.965 56.2797 284.452 56.8214C284.96 57.3631 285.352 58.1597 285.628 59.2113C286.348 58.096 287.057 57.2356 287.756 56.6302C288.476 55.9929 289.112 55.5149 289.662 55.1962C290.319 54.8457 290.933 54.6386 291.505 54.5748C292.268 54.543 292.967 54.7342 293.602 55.1484C294.258 55.5627 294.83 56.0885 295.318 56.7258C295.805 57.3312 296.196 57.9845 296.493 58.6855C296.79 59.3547 296.959 59.9442 297.001 60.4541C297.065 61.1551 297.033 62.0633 296.906 63.1786C296.779 64.2621 296.631 65.3774 296.461 66.5245C296.292 67.6398 296.133 68.6755 295.985 69.6314C295.858 70.5556 295.805 71.2088 295.826 71.5912C295.889 71.9099 296.038 72.2922 296.271 72.7384C296.482 73.1208 296.79 73.5987 297.192 74.1723C297.616 74.714 298.219 75.3514 299.003 76.0843C298.325 76.0524 297.721 76.0205 297.192 75.9887C296.684 75.9568 296.249 75.909 295.889 75.8453C295.466 75.7816 295.095 75.7338 294.777 75.7019C294.523 75.7019 294.216 75.67 293.856 75.6063C293.56 75.5744 293.168 75.5266 292.681 75.4629C292.215 75.3992 291.675 75.3354 291.06 75.2717C291.293 75.1761 291.484 75.0008 291.632 74.7459C291.78 74.4591 291.907 74.1883 292.013 73.9333C292.119 73.6147 292.204 73.2642 292.268 72.8818C292.31 72.5631 292.352 72.0532 292.395 71.3522C292.437 70.6512 292.469 69.8545 292.49 68.9623C292.532 68.07 292.553 67.13 292.553 66.1421C292.575 65.1543 292.575 64.2143 292.553 63.322C292.532 62.4298 292.49 61.6172 292.426 60.8843C292.363 60.1514 292.278 59.5937 292.172 59.2113C292.088 58.9245 291.939 58.7015 291.727 58.5421C291.516 58.3509 291.272 58.2394 290.997 58.2075C290.721 58.1438 290.446 58.1597 290.171 58.2553C289.895 58.3191 289.652 58.4465 289.44 58.6377C289.249 58.8608 288.995 59.1635 288.678 59.5459C288.402 59.8964 288.042 60.3744 287.597 60.9799C287.153 61.5853 286.591 62.3501 285.913 63.2742C285.85 65.2818 285.797 66.9069 285.755 68.1497C285.733 69.3606 285.712 70.2847 285.691 70.922C285.67 71.6868 285.659 72.2126 285.659 72.4994C285.638 72.7543 285.649 72.9933 285.691 73.2164C285.733 73.6943 285.861 74.1405 286.072 74.5547C285.818 74.4591 285.543 74.3954 285.246 74.3635C284.971 74.3317 284.717 74.2998 284.484 74.2679C284.208 74.2361 283.933 74.2201 283.658 74.2201C283.425 74.2201 283.171 74.2361 282.895 74.2679C282.662 74.2998 282.376 74.3476 282.038 74.4113C281.699 74.4432 281.328 74.491 280.926 74.5547C281.095 74.3954 281.233 74.2042 281.339 73.9811C281.444 73.7581 281.529 73.5509 281.593 73.3597C281.677 73.1367 281.741 72.9296 281.783 72.7384C281.805 72.5472 281.847 72.0851 281.91 71.3522C281.974 70.5874 282.016 69.6952 282.038 68.6755C282.059 67.6558 282.059 66.5883 282.038 65.473C282.016 64.3258 281.942 63.2901 281.815 62.366C281.688 61.4101 281.487 60.6293 281.211 60.0239C280.957 59.4184 280.618 59.1476 280.195 59.2113C279.687 59.2751 279.168 59.4662 278.638 59.7849C278.193 60.0398 277.717 60.4222 277.208 60.9321C276.7 61.4419 276.224 62.127 275.779 62.9874C275.694 65.3774 275.641 67.2734 275.62 68.6755C275.62 70.0776 275.63 71.1451 275.652 71.878C275.673 72.7384 275.694 73.3279 275.715 73.6465C275.736 73.8696 275.789 74.0927 275.874 74.3157C275.938 74.5069 276.012 74.73 276.096 74.9849C276.202 75.2398 276.319 75.4788 276.446 75.7019L271.394 75.3195C271.564 75.192 271.712 75.0327 271.839 74.8415C271.966 74.6184 272.072 74.3954 272.157 74.1723C272.242 73.9174 272.326 73.6625 272.411 73.4075C272.475 73.1845 272.528 72.6587 272.57 71.8302C272.633 71.0017 272.686 70.0298 272.729 68.9145C272.771 67.7673 272.803 66.5723 272.824 65.3296C272.866 64.0549 272.888 62.8759 272.888 61.7925C272.909 60.6771 272.919 59.7371 272.919 58.9723C272.919 58.1757 272.909 57.6977 272.888 57.5384C272.824 57.2197 272.708 56.8851 272.538 56.5346C272.39 56.2797 272.189 56.0088 271.935 55.722C271.68 55.4034 271.341 55.1644 270.918 55.005Z" fill="white"/>
<path d="M307.422 69.966C308.015 69.966 308.566 69.8704 309.074 69.6792C309.498 69.5199 309.9 69.265 310.281 68.9145C310.684 68.5321 310.949 67.9744 311.076 67.2415C311.499 67.369 311.859 67.4805 312.156 67.5761C312.452 67.6398 312.706 67.7036 312.918 67.7673C313.151 67.8629 313.352 67.9266 313.522 67.9585C313.691 68.0222 313.893 68.086 314.126 68.1497C314.337 68.2134 314.592 68.2931 314.888 68.3887C315.206 68.4524 315.576 68.548 316 68.6755C315.682 68.6117 315.354 68.6595 315.015 68.8189C314.697 68.9782 314.39 69.1535 314.094 69.3447C313.755 69.5677 313.437 69.8386 313.141 70.1572C312.95 70.3484 312.728 70.6352 312.473 71.0176C312.241 71.4 311.902 71.7665 311.457 72.117C311.012 72.4675 310.419 72.7702 309.678 73.0252C308.958 73.2482 308.026 73.3279 306.882 73.2642C305.505 73.2004 304.351 72.834 303.419 72.1648C302.487 71.4637 301.735 70.6193 301.163 69.6314C300.591 68.6117 300.178 67.5124 299.924 66.3333C299.67 65.1543 299.532 64.0549 299.511 63.0352C299.49 62.0155 299.691 60.948 300.115 59.8327C300.538 58.7174 301.131 57.6977 301.894 56.7736C302.678 55.8495 303.62 55.1006 304.722 54.527C305.823 53.9216 307.03 53.6189 308.343 53.6189C309.106 53.6189 309.805 53.7623 310.44 54.0491C311.097 54.304 311.69 54.6545 312.219 55.1006C312.77 55.5468 313.247 56.0566 313.649 56.6302C314.051 57.1719 314.39 57.7296 314.666 58.3031C314.941 58.9086 315.174 59.5459 315.365 60.2151C315.534 60.7887 315.672 61.4419 315.778 62.1748C315.884 62.9078 315.915 63.6566 315.873 64.4214C314.263 64.4851 312.961 64.5329 311.965 64.5648C310.991 64.5966 310.228 64.6126 309.678 64.6126H308.248H307.168C306.787 64.6126 306.289 64.6285 305.675 64.6604C305.06 64.6922 304.309 64.74 303.419 64.8038C303.525 66.0784 303.79 67.0662 304.213 67.7673C304.658 68.4365 305.124 68.9463 305.611 69.2969C306.162 69.6792 306.765 69.9023 307.422 69.966ZM304.563 61.3623C305.24 61.426 305.802 61.4738 306.247 61.5057C306.712 61.5375 307.094 61.5694 307.39 61.6013C307.708 61.6331 307.962 61.6491 308.153 61.6491H308.947C309.476 61.6491 310.461 61.6013 311.902 61.5057C311.838 60.1036 311.637 59.0361 311.298 58.3031C310.98 57.5702 310.641 57.0285 310.281 56.678C309.858 56.2956 309.392 56.0725 308.883 56.0088C307.507 56.0407 306.479 56.4709 305.802 57.2994C305.145 58.1279 304.732 59.4822 304.563 61.3623Z" fill="white"/>
<path d="M931.98 62V47.04H933.74V53.706H940.868V47.04H942.628V62H940.868V55.334H933.74V62H931.98ZM946.919 60.702C946.113 59.6167 945.709 58.216 945.709 56.5C945.709 54.784 946.113 53.3907 946.919 52.32C947.726 51.2347 948.929 50.692 950.527 50.692C952.141 50.692 953.358 51.2347 954.179 52.32C955.001 53.3907 955.411 54.784 955.411 56.5C955.411 58.216 955.001 59.6167 954.179 60.702C953.358 61.7727 952.141 62.308 950.527 62.308C948.929 62.308 947.726 61.7727 946.919 60.702ZM948.173 53.398C947.645 54.19 947.381 55.224 947.381 56.5C947.381 57.776 947.645 58.8173 948.173 59.624C948.701 60.416 949.493 60.812 950.549 60.812C951.605 60.812 952.397 60.416 952.925 59.624C953.468 58.8173 953.739 57.776 953.739 56.5C953.739 55.224 953.468 54.19 952.925 53.398C952.397 52.5913 951.605 52.188 950.549 52.188C949.493 52.188 948.701 52.5913 948.173 53.398ZM963.552 50.692C965.312 50.692 966.412 51.6087 966.852 53.442C967.277 52.562 967.82 51.8873 968.48 51.418C969.154 50.934 969.844 50.692 970.548 50.692C971.677 50.692 972.542 51.0807 973.144 51.858C973.745 52.6207 974.046 53.772 974.046 55.312V62H972.374V55.312C972.374 53.2293 971.677 52.188 970.284 52.188C969.477 52.188 968.744 52.628 968.084 53.508C967.438 54.388 967.094 55.598 967.05 57.138V62H965.378V55.312C965.378 53.2293 964.681 52.188 963.288 52.188C962.481 52.188 961.748 52.628 961.088 53.508C960.442 54.388 960.098 55.598 960.054 57.138V62H958.382V53.2L958.162 51L959.614 50.89L960.032 53.112C960.472 52.3347 961.007 51.7407 961.638 51.33C962.268 50.9047 962.906 50.692 963.552 50.692ZM981.241 62.308C979.921 62.308 978.829 61.846 977.963 60.922C977.113 59.998 976.687 58.6413 976.687 56.852C976.687 55.0627 977.193 53.5887 978.205 52.43C979.217 51.2713 980.53 50.692 982.143 50.692C983.17 50.692 983.999 51.0073 984.629 51.638C985.26 52.254 985.575 53.0313 985.575 53.97C985.575 54.894 985.091 55.7447 984.123 56.522C983.17 57.2993 981.777 57.688 979.943 57.688C979.459 57.688 978.946 57.666 978.403 57.622C978.506 58.6633 978.821 59.4553 979.349 59.998C979.892 60.5407 980.545 60.812 981.307 60.812C982.583 60.812 983.647 60.416 984.497 59.624L985.289 60.702C984.175 61.7727 982.825 62.308 981.241 62.308ZM982.077 52.188C981.065 52.188 980.222 52.5473 979.547 53.266C978.887 53.9847 978.499 54.938 978.381 56.126C978.865 56.1993 979.401 56.236 979.987 56.236C981.249 56.236 982.217 56.0013 982.891 55.532C983.566 55.0627 983.903 54.52 983.903 53.904C983.903 53.4493 983.735 53.0533 983.397 52.716C983.075 52.364 982.635 52.188 982.077 52.188Z" fill="white"/>
<path d="M1075.19 47.04L1080.23 62H1078.41L1076.95 57.6H1071.28L1069.83 62H1068L1073.04 47.04H1075.19ZM1074.12 48.976L1071.78 56.016H1076.43L1074.12 48.976ZM1083.55 46.6V52.804C1084.35 51.396 1085.54 50.692 1087.11 50.692C1088.34 50.692 1089.35 51.1687 1090.12 52.122C1090.92 53.0753 1091.31 54.454 1091.31 56.258C1091.31 58.0473 1090.8 59.5067 1089.77 60.636C1088.76 61.7507 1087.52 62.308 1086.05 62.308C1084.59 62.308 1083.52 61.8973 1082.86 61.076C1082.2 60.24 1081.87 59.1107 1081.87 57.688V46.6H1083.55ZM1089.64 56.28C1089.64 54.9453 1089.39 53.9333 1088.89 53.244C1088.39 52.54 1087.69 52.188 1086.78 52.188C1085.89 52.188 1085.13 52.5913 1084.51 53.398C1083.9 54.2047 1083.58 55.444 1083.55 57.116V57.688C1083.55 58.612 1083.74 59.3673 1084.12 59.954C1084.51 60.526 1085.11 60.812 1085.9 60.812C1086.99 60.812 1087.88 60.394 1088.58 59.558C1089.29 58.7073 1089.64 57.6147 1089.64 56.28ZM1094.72 60.702C1093.91 59.6167 1093.51 58.216 1093.51 56.5C1093.51 54.784 1093.91 53.3907 1094.72 52.32C1095.52 51.2347 1096.73 50.692 1098.32 50.692C1099.94 50.692 1101.15 51.2347 1101.98 52.32C1102.8 53.3907 1103.21 54.784 1103.21 56.5C1103.21 58.216 1102.8 59.6167 1101.98 60.702C1101.15 61.7727 1099.94 62.308 1098.32 62.308C1096.73 62.308 1095.52 61.7727 1094.72 60.702ZM1095.97 53.398C1095.44 54.19 1095.18 55.224 1095.18 56.5C1095.18 57.776 1095.44 58.8173 1095.97 59.624C1096.5 60.416 1097.29 60.812 1098.35 60.812C1099.4 60.812 1100.19 60.416 1100.72 59.624C1101.26 58.8173 1101.54 57.776 1101.54 56.5C1101.54 55.224 1101.26 54.19 1100.72 53.398C1100.19 52.5913 1099.4 52.188 1098.35 52.188C1097.29 52.188 1096.5 52.5913 1095.97 53.398ZM1105.96 51H1107.63V57.688C1107.63 59.7707 1108.37 60.812 1109.85 60.812C1110.7 60.812 1111.47 60.3793 1112.16 59.514C1112.87 58.634 1113.24 57.424 1113.28 55.884V51H1114.96V59.8L1115.18 62L1113.72 62.11L1113.28 59.844C1112.84 60.636 1112.29 61.2447 1111.61 61.67C1110.94 62.0953 1110.26 62.308 1109.57 62.308C1107.16 62.308 1105.96 60.768 1105.96 57.688V51ZM1117.47 52.43V51H1119.14L1119.67 47.7H1120.82V51H1123.39V52.43H1120.82V59.602C1120.82 60.4087 1121.15 60.812 1121.81 60.812C1122.3 60.812 1122.85 60.5993 1123.43 60.174L1124.05 61.296C1123.2 61.9707 1122.37 62.308 1121.56 62.308C1120.76 62.308 1120.15 62.1173 1119.74 61.736C1119.34 61.34 1119.14 60.6287 1119.14 59.602V52.43H1117.47Z" fill="white"/>
<rect x="1163" y="29" width="127" height="50" rx="20" fill="#0C1077"/>
<path d="M1197.39 63.352C1195.29 63.352 1193.72 62.626 1192.66 61.174C1191.62 59.722 1191.1 57.8373 1191.1 55.52C1191.1 53.2027 1191.62 51.318 1192.66 49.866C1193.72 48.414 1195.29 47.688 1197.39 47.688C1198.77 47.688 1200.02 48.0327 1201.15 48.722L1200.54 50.196C1199.57 49.5947 1198.52 49.294 1197.39 49.294C1195.88 49.294 1194.74 49.8733 1193.98 51.032C1193.23 52.176 1192.86 53.672 1192.86 55.52C1192.86 57.368 1193.23 58.8713 1193.98 60.03C1194.74 61.174 1195.88 61.746 1197.39 61.746C1198.64 61.746 1199.76 61.438 1200.76 60.822L1201.53 62.186C1200.27 62.9633 1198.89 63.352 1197.39 63.352ZM1204.06 61.702C1203.26 60.6167 1202.85 59.216 1202.85 57.5C1202.85 55.784 1203.26 54.3907 1204.06 53.32C1204.87 52.2347 1206.07 51.692 1207.67 51.692C1209.28 51.692 1210.5 52.2347 1211.32 53.32C1212.14 54.3907 1212.55 55.784 1212.55 57.5C1212.55 59.216 1212.14 60.6167 1211.32 61.702C1210.5 62.7727 1209.28 63.308 1207.67 63.308C1206.07 63.308 1204.87 62.7727 1204.06 61.702ZM1205.32 54.398C1204.79 55.19 1204.52 56.224 1204.52 57.5C1204.52 58.776 1204.79 59.8173 1205.32 60.624C1205.84 61.416 1206.64 61.812 1207.69 61.812C1208.75 61.812 1209.54 61.416 1210.07 60.624C1210.61 59.8173 1210.88 58.776 1210.88 57.5C1210.88 56.224 1210.61 55.19 1210.07 54.398C1209.54 53.5913 1208.75 53.188 1207.69 53.188C1206.64 53.188 1205.84 53.5913 1205.32 54.398ZM1220.91 51.692C1223.32 51.692 1224.52 53.232 1224.52 56.312V63H1222.85V56.312C1222.85 54.2293 1222.11 53.188 1220.63 53.188C1219.78 53.188 1219 53.628 1218.3 54.508C1217.61 55.388 1217.24 56.598 1217.2 58.138V63H1215.52V54.2L1215.3 52L1216.76 51.89L1217.17 54.156C1217.63 53.364 1218.19 52.7553 1218.87 52.33C1219.54 51.9047 1220.22 51.692 1220.91 51.692ZM1226.82 53.43V52H1228.49L1229.02 48.7H1230.16V52H1232.74V53.43H1230.16V60.602C1230.16 61.4087 1230.49 61.812 1231.15 61.812C1231.65 61.812 1232.19 61.5993 1232.78 61.174L1233.4 62.296C1232.55 62.9707 1231.72 63.308 1230.91 63.308C1230.1 63.308 1229.49 63.1173 1229.08 62.736C1228.69 62.34 1228.49 61.6287 1228.49 60.602V53.43H1226.82ZM1238.76 63.308C1237.5 63.308 1236.47 62.8313 1235.66 61.878C1234.86 60.9247 1234.45 59.5533 1234.45 57.764C1234.45 55.96 1234.96 54.5007 1235.97 53.386C1237 52.2567 1238.27 51.692 1239.78 51.692C1241.3 51.692 1242.67 52.1173 1243.89 52.968V60.8L1244.11 63L1242.66 63.11L1242.28 61.13C1241.46 62.582 1240.29 63.308 1238.76 63.308ZM1236.12 57.72C1236.12 59.04 1236.4 60.052 1236.96 60.756C1237.52 61.46 1238.23 61.812 1239.09 61.812C1239.97 61.812 1240.72 61.3793 1241.32 60.514C1241.92 59.634 1242.22 58.3947 1242.22 56.796V53.738C1241.49 53.3713 1240.7 53.188 1239.86 53.188C1238.78 53.188 1237.88 53.6133 1237.18 54.464C1236.48 55.3 1236.12 56.3853 1236.12 57.72ZM1255.41 61.944C1254.35 62.8533 1253.12 63.308 1251.71 63.308C1250.32 63.308 1249.16 62.8387 1248.23 61.9C1247.33 60.9613 1246.87 59.5973 1246.87 57.808C1246.87 56.004 1247.33 54.5373 1248.23 53.408C1249.16 52.264 1250.43 51.692 1252.06 51.692C1253.07 51.692 1254.01 51.956 1254.88 52.484L1254.46 53.826C1253.68 53.4007 1252.9 53.188 1252.11 53.188C1251.02 53.188 1250.16 53.5987 1249.51 54.42C1248.87 55.2413 1248.54 56.3413 1248.54 57.72C1248.54 59.084 1248.84 60.1107 1249.42 60.8C1250.02 61.4747 1250.79 61.812 1251.71 61.812C1252.88 61.812 1253.9 61.46 1254.75 60.756L1255.41 61.944ZM1256.34 53.43V52H1258.01L1258.54 48.7H1259.68V52H1262.26V53.43H1259.68V60.602C1259.68 61.4087 1260.01 61.812 1260.67 61.812C1261.17 61.812 1261.71 61.5993 1262.3 61.174L1262.92 62.296C1262.06 62.9707 1261.24 63.308 1260.43 63.308C1259.62 63.308 1259.01 63.1173 1258.6 62.736C1258.21 62.34 1258.01 61.6287 1258.01 60.602V53.43H1256.34Z" fill="white"/>
</g>
<defs>
<filter id="filter0_d_1_51" x="146" y="29" width="1148" height="58" filterUnits="userSpaceOnUse" color-interpolation-filters="sRGB">
<feFlood flood-opacity="0" result="BackgroundImageFix"/>
<feColorMatrix in="SourceAlpha" type="matrix" values="0 0 0 0 0 0 0 0 0 0 0 0 0 0 0 0 0 0 127 0" result="hardAlpha"/>
<feOffset dy="4"/>
<feGaussianBlur stdDeviation="2"/>
<feComposite in2="hardAlpha" operator="out"/>
<feColorMatrix type="matrix" values="0 0 0 0 0 0 0 0 0 0 0 0 0 0 0 0 0 0 0.25 0"/>
<feBlend mode="normal" in2="BackgroundImageFix" result="effect1_dropShadow_1_51"/>
<feBlend mode="normal" in="SourceGraphic" in2="effect1_dropShadow_1_51" result="shape"/>
</filter>
</defs>
</svg>
